<?xml version="1.0" encoding="iso-8859-1"?>
<!-- Generator: Adobe Illustrator 23.0.6, SVG Export Plug-In . SVG Version: 6.00 Build 0)  -->
<svg version="1.1" id="&#x421;&#x43B;&#x43E;&#x439;_1"
	 xmlns="http://www.w3.org/2000/svg" xmlns:xlink="http://www.w3.org/1999/xlink" x="0px" y="0px" viewBox="0 0 80 80"
	 style="enable-background:new 0 0 80 80;" xml:space="preserve">
<circle style="fill:none;stroke:#000000;stroke-width:2;stroke-miterlimit:10;" cx="40" cy="40" r="32"/>
<path style="fill:none;stroke:#000000;stroke-width:2;stroke-linecap:round;stroke-miterlimit:10;" d="M61,40L61,40
	c0,7.536-2.511,13.439-4,16c-5.388,9.263-14.038,12.904-17,14c0-1.021,0-2.042,0-3.063c0-3.077-2.058-5.81-5.043-6.557
	c-9.483-2.374-16.5-11.269-15.924-21.558"/>
<path d="M59.99,39.3c-0.021-0.56,0.409-1.02,0.96-1.04l0,0c0.55-0.02,1.02,0.41,1.04,0.97l0,0c0,0,0,0-0.011,0l0,0
	c0.021,0.55-0.41,1.01-0.96,1.03l0,0c-0.01,0-0.02,0-0.04,0l0,0C60.45,40.26,60.01,39.84,59.99,39.3z M18.979,39.82
	c-0.56-0.03-0.979-0.5-0.949-1.05l0,0c0,0,0,0,0.01,0l0,0c0.029-0.56,0.5-0.98,1.05-0.95l0,0c0.55,0.03,0.97,0.51,0.94,1.06l0,0
	c-0.03,0.53-0.471,0.94-1,0.94l0,0C19.01,39.82,19,39.82,18.979,39.82z M59.49,35.53c-0.131-0.54,0.21-1.08,0.75-1.2l0,0
	c0.529-0.13,1.069,0.21,1.199,0.75l0,0c0.12,0.53-0.21,1.07-0.75,1.2l0,0c-0.08,0.01-0.149,0.02-0.229,0.02l0,0
	C60.01,36.3,59.6,35.99,59.49,35.53z M19.399,35.84c-0.54-0.13-0.859-0.68-0.729-1.21l0,0c0.14-0.54,0.689-0.86,1.22-0.72l0,0
	c0.53,0.13,0.86,0.68,0.72,1.21l0,0c-0.109,0.45-0.52,0.76-0.97,0.76l0,0C19.56,35.88,19.479,35.87,19.399,35.84z M58.28,31.93
	c-0.23-0.51,0-1.1,0.5-1.32l0,0c0.51-0.23,1.1,0,1.319,0.5l0,0c0.23,0.5,0,1.1-0.5,1.32l0,0c-0.13,0.06-0.27,0.09-0.41,0.09l0,0
	C58.81,32.52,58.439,32.3,58.28,31.93z M20.569,32.02c-0.5-0.23-0.71-0.83-0.47-1.33l0,0c0.23-0.5,0.83-0.71,1.33-0.47l0,0
	c0.5,0.23,0.71,0.83,0.47,1.33l0,0c-0.17,0.36-0.529,0.57-0.899,0.57l0,0C20.85,32.12,20.71,32.09,20.569,32.02z M56.399,28.62
	c-0.31-0.46-0.199-1.08,0.25-1.39l0,0c0.45-0.32,1.07-0.21,1.391,0.24l0,0c0.319,0.45,0.21,1.08-0.24,1.39l0,0
	c-0.18,0.13-0.38,0.18-0.58,0.18l0,0C56.91,29.04,56.6,28.9,56.399,28.62z M22.46,28.5c-0.45-0.33-0.55-0.95-0.22-1.4l0,0
	c0.329-0.45,0.949-0.54,1.399-0.22l0,0c0.44,0.33,0.54,0.95,0.21,1.4l0,0c-0.189,0.27-0.5,0.41-0.8,0.41l0,0
	C22.84,28.69,22.63,28.63,22.46,28.5z M53.939,25.72c-0.399-0.39-0.399-1.02-0.02-1.42l0,0c0.39-0.39,1.02-0.4,1.42-0.02l0,0
	c0,0,0,0,0,0.01l0,0c0.39,0.38,0.4,1.01,0.01,1.41l0,0c-0.189,0.2-0.45,0.3-0.71,0.3l0,0C54.39,26,54.13,25.91,53.939,25.72z
	 M24.97,25.38c-0.38-0.4-0.36-1.03,0.04-1.41l0,0c0.4-0.38,1.04-0.36,1.41,0.05l0,0c0.38,0.4,0.36,1.03-0.04,1.41l0,0
	c-0.19,0.18-0.44,0.27-0.69,0.27l0,0C25.43,25.7,25.16,25.59,24.97,25.38z M50.979,23.32L50.979,23.32
	c-0.46-0.3-0.59-0.92-0.279-1.38l0,0c0.3-0.46,0.92-0.59,1.39-0.28l0,0c0.45,0.3,0.58,0.92,0.27,1.38l0,0
	c-0.189,0.29-0.51,0.45-0.829,0.45l0,0C51.34,23.49,51.149,23.44,50.979,23.32z M28.01,22.79c-0.3-0.47-0.16-1.08,0.31-1.38l0,0
	c0.461-0.3,1.08-0.16,1.37,0.31l0,0c0.301,0.46,0.16,1.08-0.3,1.38l0,0c-0.17,0.1-0.35,0.15-0.54,0.15l0,0
	C28.52,23.25,28.2,23.09,28.01,22.79z M47.63,21.53c-0.521-0.21-0.76-0.8-0.54-1.31l0,0c0.21-0.51,0.8-0.75,1.31-0.54l0,0
	c0.5,0.22,0.75,0.8,0.53,1.31l0,0c-0.16,0.39-0.53,0.62-0.92,0.62l0,0C47.88,21.61,47.75,21.58,47.63,21.53z M31.479,20.81
	c-0.199-0.52,0.051-1.1,0.561-1.3l0,0c0.52-0.2,1.1,0.05,1.3,0.56l0,0c0.2,0.52-0.05,1.1-0.56,1.3l0,0
	c-0.12,0.05-0.25,0.07-0.37,0.07l0,0C32.01,21.44,31.63,21.2,31.479,20.81z M43.99,20.41c-0.54-0.12-0.891-0.65-0.771-1.18l0,0
	c0.11-0.55,0.64-0.89,1.18-0.78l0,0c0.54,0.11,0.891,0.64,0.78,1.18l0,0c-0.1,0.47-0.52,0.8-0.99,0.8l0,0
	C44.13,20.43,44.06,20.42,43.99,20.41z M35.26,19.52c-0.1-0.54,0.26-1.06,0.81-1.16l0,0c0,0,0,0-0.01,0l0,0
	c0.55-0.1,1.07,0.26,1.17,0.8l0,0c0.101,0.54-0.26,1.06-0.8,1.17l0,0c-0.06,0.01-0.12,0.01-0.18,0.01l0,0
	C35.77,20.34,35.35,20,35.26,19.52z M40.22,20c-0.56,0-1-0.46-0.99-1.01l0,0c0-0.55,0.45-0.99,1.011-0.99l0,0
	c0.55,0.01,0.989,0.46,0.989,1.01l0,0C41.22,19.56,40.77,20,40.22,20L40.22,20L40.22,20z"/>
</svg>