<svg width="533" height="106" viewBox="0 0 533 106" fill="none" xmlns="http://www.w3.org/2000/svg">
<path d="M189.834 15.5074V0.188608C189.834 0.188608 209.771 0.0383415 218.745 14.8315L209.283 27.2969L201.586 18.6237C201.586 18.6237 200.535 15.5074 189.834 15.5074Z" fill="#2C3049"/>
<path d="M0 95.3297L7.88467 83.4275C13.5167 88.7215 20.1999 91.3498 27.9344 91.3498C31.0507 91.3498 33.4912 90.7115 35.1808 89.435C36.8704 88.1583 37.7339 86.3937 37.7339 84.1034C37.7339 82.0383 36.5324 80.2361 34.1295 78.6967C31.7265 77.1949 28.8355 75.8057 25.4188 74.6042C22.002 73.3651 18.5853 71.9385 15.1311 70.2865C11.6768 68.6343 8.74827 66.2314 6.34533 63.1151C3.9424 59.9987 2.74093 56.2817 2.74093 51.9263C2.74093 45.1305 5.294 39.7989 10.4003 35.9691C15.5065 32.1395 21.9645 30.2246 29.6991 30.2246C39.4611 30.2246 47.3833 32.9655 53.4657 38.4473L47.0079 51.1003C44.9804 49.2981 42.2771 47.8338 38.9353 46.6323C35.5563 45.4683 32.3273 44.8677 29.1733 44.8677C22.6404 44.8677 19.3739 47.1955 19.3739 51.8137C19.3739 53.8787 20.5753 55.6809 22.9783 57.1827C25.3812 58.6846 28.3099 60.0738 31.7641 61.2753C35.2183 62.5143 38.6351 63.9035 42.0517 65.443C45.4684 67.0199 48.3595 69.3478 50.7624 72.4641C53.1655 75.5805 54.3669 79.2975 54.3669 83.6529C54.3669 90.0733 51.9264 95.4047 47.0453 99.6099C42.1644 103.815 35.7064 105.918 27.6716 105.918C16.4077 105.955 7.17133 102.426 0 95.3297Z" fill="#2C3049"/>
<path d="M158.597 104.266V47.2706H149.887V32.9279H158.597V29.8115C158.597 25.2684 159.311 18.3224 160.738 14.9808C162.164 11.6392 163.892 9.01096 165.919 7.17122C167.946 5.33148 170.349 3.82962 173.165 2.70322C175.981 1.57683 178.497 0.82589 180.712 0.488022C182.927 0.150024 185.18 -0.000114441 187.47 -0.000114441L193.403 0.412819V12.3526C192.389 12.1648 191.188 15.4314 189.798 15.4314C180.675 15.4314 176.094 22.4526 176.094 30.4874V104.191H158.597V104.266Z" fill="#2C3049"/>
<path d="M201.175 77.7584V47.271H192.051V32.9283H201.588V11.1139L218.746 14.8686V32.9658H234.778V47.271H218.746V75.4682C218.746 80.6495 220.211 84.2539 223.102 86.1687C225.993 88.1212 229.222 89.0598 232.713 89.0598C233.915 89.0598 234.966 88.9847 235.905 88.7595V104.491C233.126 104.792 231.324 104.904 230.498 104.904C228.095 104.904 225.805 104.754 223.59 104.416C221.374 104.078 218.859 103.365 215.968 102.201C213.114 101.075 210.636 99.5727 208.571 97.733C206.506 95.8932 204.741 93.2275 203.315 89.7732C201.888 86.4316 201.175 82.3766 201.175 77.7584Z" fill="#2C3049"/>
<path d="M252.65 104.265C252.951 99.459 253.214 92.2877 253.214 86.0174V0.637398H265.604V44.9794H265.904C270.335 37.0947 278.294 31.9885 289.371 31.9885C306.454 31.9885 318.544 46.5939 318.394 68.0329C318.394 93.2638 302.887 105.842 287.493 105.842C277.543 105.842 269.546 101.9 264.44 92.5505H264.027L263.464 104.227H252.65V104.265ZM265.604 75.955C265.604 77.5695 265.904 79.1841 266.167 80.6107C268.57 89.5093 275.854 95.6293 284.94 95.6293C298.044 95.6293 305.853 84.7033 305.853 68.4834C305.853 54.3285 298.72 42.201 285.353 42.201C276.83 42.201 268.833 48.1709 266.28 57.9705C265.979 59.4347 265.566 61.1994 265.566 63.2269V75.955H265.604Z" fill="#2C3049"/>
<path d="M325.639 0.638649H338.179V104.229H325.639V0.638649Z" fill="#2C3049"/>
<path d="M411.17 85.0053C411.17 92.2891 411.32 98.7095 411.733 104.266H400.62L399.906 92.7397H399.606C396.339 98.4467 389.093 105.881 376.853 105.881C366.039 105.881 353.086 99.7609 353.086 74.9429V33.6421H365.626V72.7651C365.626 86.2067 369.606 95.2178 380.983 95.2178C389.393 95.2178 395.213 89.2479 397.503 83.5409C398.216 81.6261 398.63 79.2982 398.63 76.9703V33.6421H411.17V85.0053Z" fill="#2C3049"/>
<path d="M433.246 71.263C433.547 88.6094 444.36 95.7807 456.863 95.7807C465.837 95.7807 471.243 94.1662 475.936 92.1387L478.077 101.338C473.646 103.365 466.137 105.73 455.173 105.73C433.96 105.73 421.307 91.4254 421.307 70.1366C421.307 48.8479 433.547 32.0649 453.596 32.0649C476.087 32.0649 482.056 52.3398 482.056 65.3307C482.056 67.959 481.756 69.9865 481.643 71.3006H433.246V71.263ZM469.967 62.1018C470.117 53.9167 466.7 41.2261 452.62 41.2261C439.967 41.2261 434.41 53.2033 433.397 62.1018H469.967Z" fill="#2C3049"/>
<path d="M490.167 91.125C493.884 93.603 500.417 96.2313 506.687 96.2313C515.811 96.2313 520.054 91.5755 520.054 85.7183C520.054 79.5983 516.487 76.2191 507.251 72.7274C494.86 68.2218 489.041 61.2007 489.041 52.7529C489.041 41.3763 498.014 32.0274 512.808 32.0274C519.791 32.0274 525.911 34.0549 529.741 36.4202L526.625 45.7693C523.921 44.0046 518.928 41.6767 512.545 41.6767C505.148 41.6767 501.018 46.0697 501.018 51.2885C501.018 57.1082 505.148 59.7365 514.122 63.2658C526.061 67.9215 532.181 74.079 532.181 84.5545C532.181 96.9446 522.795 105.73 506.425 105.73C498.878 105.73 491.894 103.816 487.051 100.925L490.167 91.125Z" fill="#2C3049"/>
<mask id="mask0_260_89" style="mask-type:alpha" maskUnits="userSpaceOnUse" x="63" y="29" width="78" height="77">
<path fill-rule="evenodd" clip-rule="evenodd" d="M102.168 90.6C114.926 90.6 125.268 80.2578 125.268 67.5C125.268 54.7422 114.926 44.4 102.168 44.4C89.4102 44.4 79.068 54.7422 79.068 67.5C79.068 80.2578 89.4102 90.6 102.168 90.6ZM102.168 106C123.431 106 140.668 88.763 140.668 67.5C140.668 46.237 123.431 29 102.168 29C80.905 29 63.668 46.237 63.668 67.5C63.668 88.763 80.905 106 102.168 106Z" fill="#EDDF5E"/>
</mask>
<g mask="url(#mask0_260_89)">
<path d="M134.507 44.2808L116.975 55.6531L119.581 64.4192L116.975 78.99L103.115 87.7561L89.2549 83.7285L93.9933 112.159H107.143L123.964 105.644L134.507 94.6269L141.496 78.99V59.6808L134.507 44.2808Z" fill="#35B7E9"/>
</g>
<mask id="mask1_260_89" style="mask-type:alpha" maskUnits="userSpaceOnUse" x="63" y="29" width="78" height="77">
<path fill-rule="evenodd" clip-rule="evenodd" d="M102.168 90.6C114.926 90.6 125.268 80.2578 125.268 67.5C125.268 54.7422 114.926 44.4 102.168 44.4C89.4102 44.4 79.068 54.7422 79.068 67.5C79.068 80.2578 89.4102 90.6 102.168 90.6ZM102.168 106C123.431 106 140.668 88.763 140.668 67.5C140.668 46.237 123.431 29 102.168 29C80.905 29 63.668 46.237 63.668 67.5C63.668 88.763 80.905 106 102.168 106Z" fill="#EDDF5E"/>
</mask>
<g mask="url(#mask1_260_89)">
<path d="M75.3969 31.4865L59.8785 58.1403L58.1016 70.4603L82.1493 68.5649L83.6893 63.1157L95.5354 48.4265H111.765L116.148 55.0603L133.68 38.8311L125.032 29.3542L101.814 24.1418L75.3969 31.4865Z" fill="url(#paint0_linear_260_89)"/>
</g>
<mask id="mask2_260_89" style="mask-type:alpha" maskUnits="userSpaceOnUse" x="63" y="29" width="78" height="77">
<path fill-rule="evenodd" clip-rule="evenodd" d="M102.168 90.6C114.926 90.6 125.268 80.2578 125.268 67.5C125.268 54.7422 114.926 44.4 102.168 44.4C89.4102 44.4 79.068 54.7422 79.068 67.5C79.068 80.2578 89.4102 90.6 102.168 90.6ZM102.168 106C123.431 106 140.668 88.763 140.668 67.5C140.668 46.237 123.431 29 102.168 29C80.905 29 63.668 46.237 63.668 67.5C63.668 88.763 80.905 106 102.168 106Z" fill="#EDDF5E"/>
</mask>
<g mask="url(#mask2_260_89)">
<path d="M96.3633 89.1787L93.4017 112.397L60.5879 87.1649L83.6879 79.9387L96.3633 89.1787Z" fill="#0093D5"/>
</g>
<mask id="mask3_260_89" style="mask-type:alpha" maskUnits="userSpaceOnUse" x="63" y="29" width="78" height="77">
<path fill-rule="evenodd" clip-rule="evenodd" d="M102.168 90.6C114.926 90.6 125.268 80.2578 125.268 67.5C125.268 54.7422 114.926 44.4 102.168 44.4C89.4102 44.4 79.068 54.7422 79.068 67.5C79.068 80.2578 89.4102 90.6 102.168 90.6ZM102.168 106C123.431 106 140.668 88.763 140.668 67.5C140.668 46.237 123.431 29 102.168 29C80.905 29 63.668 46.237 63.668 67.5C63.668 88.763 80.905 106 102.168 106Z" fill="#EDDF5E"/>
</mask>
<g mask="url(#mask3_260_89)">
<path d="M75.5116 84.4411C71.01 86.218 66.3111 89.377 65.6793 90.2457L61.1777 65.1318C69.0436 66.0795 76.5777 65.6847 79.1839 65.1318L84.1593 81.7165C83.5275 81.7165 80.0131 82.6641 75.5116 84.4411Z" fill="#007EC3"/>
</g>
<mask id="mask4_260_89" style="mask-type:alpha" maskUnits="userSpaceOnUse" x="63" y="29" width="78" height="77">
<path fill-rule="evenodd" clip-rule="evenodd" d="M102.168 90.6C114.926 90.6 125.268 80.2578 125.268 67.5C125.268 54.7422 114.926 44.4 102.168 44.4C89.4102 44.4 79.068 54.7422 79.068 67.5C79.068 80.2578 89.4102 90.6 102.168 90.6ZM102.168 106C123.431 106 140.668 88.763 140.668 67.5C140.668 46.237 123.431 29 102.168 29C80.905 29 63.668 46.237 63.668 67.5C63.668 88.763 80.905 106 102.168 106Z" fill="#EDDF5E"/>
</mask>
<g mask="url(#mask4_260_89)">
<path d="M79.6624 65.4867C74.5449 59.5162 67.5399 55.1016 63.9071 53.2852L63.1963 65.7236C67.8163 66.0395 77.6723 66.2448 79.6624 65.4867Z" fill="#0095D1"/>
<path d="M91.2699 105.291C91.9809 100.079 94.9424 92.8526 96.1356 89.8001C95.4642 87.8257 94.7848 85.1327 97.4384 90.1555C100.092 95.1782 101.782 102.989 102.296 106.266C98.5838 107.885 90.5763 110.376 91.2699 105.291Z" fill="#009EE0"/>
<path d="M119.58 52.4515L130.834 41.3162C133.401 42.5403 137.681 45.794 135.217 48.0685C132.753 50.3429 125.187 53.9915 121.712 55.5315L119.58 52.4515Z" fill="#7DCDC4"/>
<path d="M122.07 42.7384C119.796 44.9181 118.358 48.7009 117.924 50.3199C118.24 51.702 119.108 54.0635 120.056 52.4524C121.004 50.8413 128.112 44.2783 131.31 41.3166C131.113 40.4874 129.699 39.09 128.467 39.1848C126.927 39.3032 124.913 40.0137 122.07 42.7384Z" fill="#85CFC3"/>
</g>
<defs>
<linearGradient id="paint0_linear_260_89" x1="68.8816" y1="56.2449" x2="127.165" y2="42.2665" gradientUnits="userSpaceOnUse">
<stop stop-color="#29A5DD"/>
<stop offset="1" stop-color="#54C2AF"/>
</linearGradient>
</defs>
</svg>
